PathFileType  4	(X/Y/Z) C:\Users\antoi\Documents\MyRepositories\mobilecap\ResultsAnalysis
DataRate	CameraRate	NumFrames	NumMarkers	Units	OrigDataRate	OrigDataStartFrame	OrigNumFrames
100.0	100.0	4	51	mm	100.0	182	291
Frame#	Time	r_knee			r_shank_antsup			r_ankle			r_calc			r_5meta			r_toe			L_knee			L_shank_antsup			L_ankle			L_calc			L_5meta			L_toe			r_sh2			r_sh3			r_sh4			L_sh2			L_sh3			r_thigh1			r_thigh2			r_thigh3			r_thigh4			r_thigh5			L_thigh1			L_thigh2			L_thigh3			L_thigh4			r.ASIS			r.PSIS			L.ASIS			L.PSIS			C7			R_Shoulder			L_Shoulder			R_Sternum			L_Sternum			R_humerus			R_elbow_med			R_elbow_lat			R_forearm			R_wrist_radius			R_wrist_ulna			L_humerus			L_elbow_med			L_elbow_lat			L_forearm			L_wrist_radius			L_wrist_ulna			R_HJC			L_HJC			R_HJC_reg			L_HJC_reg			
		X1	Y1	Z1	X2	Y2	Z2	X3	Y3	Z3	X4	Y4	Z4	X5	Y5	Z5	X6	Y6	Z6	X7	Y7	Z7	X8	Y8	Z8	X9	Y9	Z9	X10	Y10	Z10	X11	Y11	Z11	X12	Y12	Z12	X13	Y13	Z13	X14	Y14	Z14	X15	Y15	Z15	X16	Y16	Z16	X17	Y17	Z17	X18	Y18	Z18	X19	Y19	Z19	X20	Y20	Z20	X21	Y21	Z21	X22	Y22	Z22	X23	Y23	Z23	X24	Y24	Z24	X25	Y25	Z25	X26	Y26	Z26	X27	Y27	Z27	X28	Y28	Z28	X29	Y29	Z29	X30	Y30	Z30	X31	Y31	Z31	X32	Y32	Z32	X33	Y33	Z33	X34	Y34	Z34	X35	Y35	Z35	X36	Y36	Z36	X37	Y37	Z37	X38	Y38	Z38	X39	Y39	Z39	X40	Y40	Z40	X41	Y41	Z41	X42	Y42	Z42	X43	Y43	Z43	X44	Y44	Z44	X45	Y45	Z45	X46	Y46	Z46	X47	Y47	Z47	X48	Y48	Z48	X49	Y49	Z49	X50	Y50	Z50	X51	Y51	Z51	

182	1.81000000	-77.77049	420.44041	-435.40448	-39.21750	349.55693	-435.40629	-246.36401	93.65651	-423.29482	-312.82551	64.73203	-464.59126	-152.34746	43.46358	-391.38531	-106.98603	56.12655	-445.40195	-49.83112	427.45705	-780.06198	-22.38088	331.90981	-780.29391	-207.45653	96.42761	-813.85194	-276.19698	57.81208	-773.37780	-117.82358	44.46564	-848.09677	-65.76155	58.47742	-795.99192	-101.76840	255.85168	-423.05040	-92.99510	394.90300	-402.65410	-167.44967	300.10533	-393.72805	-86.27387	384.35524	-815.42482	-143.73071	277.30937	-836.51141	-240.25023	596.76723	-388.93263	-147.03505	537.39687	-402.13104	-169.20869	468.61352	-406.86591	-308.94456	510.54134	-406.35525	-212.04882	446.77317	-431.39921	-248.03328	618.21960	-785.41746	-134.20080	543.21770	-780.60330	-316.49062	528.81678	-785.81785	-200.09316	450.71858	-764.10078	-248.89068	670.47256	-471.40584	-394.14331	800.00037	-555.68481	-242.65231	654.42328	-676.48576	-390.68431	791.28938	-635.92052	31.91619	979.54964	-542.16441	60.81824	909.70904	-399.84281	94.46551	912.06293	-675.95676	77.97349	844.64110	-512.71243	80.85655	845.34044	-551.45794	-30.92021	871.85578	-324.32440	-246.77853	938.25284	-338.52969	-231.21351	920.72325	-274.47367	-254.36259	828.28973	-260.05296	-322.63764	700.67323	-268.86928	-351.65169	718.86492	-251.05454	24.39244	893.14554	-767.23569	-196.95355	921.84495	-799.41760	-162.75499	910.07544	-855.99920	-210.24363	812.91144	-884.89354	-277.64669	705.39625	-888.05720	-310.03218	729.42801	-895.65170	-362.60428	642.03843	-472.28109	-353.17135	625.61745	-678.92143	-340.65922	656.38184	-501.65140	-334.84289	641.73553	-636.56431	
183	1.82000000	-79.76535	421.58166	-437.15487	-41.28449	350.83371	-436.74180	-246.91912	93.45447	-423.54764	-313.10197	64.26084	-464.62677	-152.54226	43.61728	-391.34690	-107.24275	56.31658	-445.43483	-51.48864	428.21274	-778.56326	-23.90598	332.63800	-779.15761	-207.85823	96.43760	-813.78742	-276.46198	57.45772	-773.39507	-117.91563	44.61782	-848.06295	-65.97634	58.83905	-795.90729	-103.47804	256.90265	-424.07523	-95.97901	395.30549	-404.74309	-169.00389	300.89536	-394.72369	-88.05765	384.67995	-813.91395	-144.73087	277.58818	-835.95591	-239.63298	600.06148	-389.29679	-147.51494	539.35267	-403.09142	-170.19017	471.07872	-407.65958	-309.56578	514.78667	-406.62673	-213.47862	449.90824	-432.04099	-247.39763	621.65406	-784.48933	-134.41989	545.33555	-779.52334	-316.21426	533.30471	-784.68699	-201.29042	453.60547	-762.99572	-248.61716	675.32187	-470.68978	-393.25615	805.04043	-555.35708	-242.02294	659.00898	-675.95753	-389.96136	796.28313	-635.50765	31.14442	984.61159	-541.82985	60.28612	914.97076	-398.84647	94.21450	915.99763	-675.60616	78.32268	850.73512	-511.74191	81.13841	851.32414	-550.70870	-32.77701	874.52629	-324.91080	-249.63934	933.78090	-345.20798	-235.88109	918.08826	-280.22908	-257.13786	824.87162	-265.22137	-321.10822	694.97563	-274.59961	-351.28749	712.28393	-257.97350	23.26967	893.10710	-766.53185	-198.94733	914.65946	-797.02412	-165.06307	904.04669	-854.51652	-210.18925	805.34333	-882.82102	-273.64448	696.02993	-886.71487	-307.25543	718.68265	-891.69256	-362.31217	647.10165	-471.76304	-352.66629	630.48180	-678.37822	-340.15680	661.44054	-500.79879	-334.60508	646.68432	-635.85515	
184	1.83000000	-81.85759	422.65836	-438.53530	-43.47431	352.05961	-437.81419	-247.54350	93.17987	-423.64624	-313.28437	63.62265	-464.80198	-152.72877	43.73427	-391.29423	-107.54296	56.44456	-445.38808	-53.13935	429.03283	-777.20996	-25.39455	333.37644	-777.89951	-208.21658	96.46907	-813.83375	-276.68295	57.12513	-773.46818	-118.01906	44.77454	-847.97876	-66.30088	59.16752	-795.83592	-105.20561	257.75723	-424.85492	-98.39630	396.24711	-405.37470	-170.43234	301.63636	-395.41252	-89.68991	385.04968	-812.41067	-145.56271	277.94188	-835.74358	-238.98870	603.98552	-389.46037	-149.19905	540.19778	-403.65073	-171.13995	473.76759	-408.09410	-309.30298	520.52746	-406.07870	-215.00736	453.53316	-432.03165	-246.75927	625.40243	-783.29098	-134.50210	547.44656	-778.35644	-316.10672	538.00101	-783.49916	-202.52727	456.59552	-761.86242	-248.02151	680.55473	-469.55945	-392.34374	810.36431	-554.94486	-241.30410	663.99474	-675.80488	-389.05029	801.54070	-634.96476	30.62363	990.86994	-541.50311	59.12911	920.86498	-397.70996	93.26711	920.62892	-675.35768	78.47435	857.27982	-510.69637	81.28561	857.71858	-549.74811	-35.07296	876.68355	-325.62846	-253.31790	926.78092	-350.68618	-240.85578	912.57830	-284.90965	-259.50369	818.14220	-270.08918	-318.15905	686.39857	-280.16486	-349.43593	702.29863	-264.60018	21.72070	892.71321	-766.10808	-201.30789	905.45600	-795.53286	-167.22667	895.63731	-853.70968	-209.23081	795.46285	-881.67846	-268.22385	684.08010	-885.59736	-302.95791	705.29446	-888.75373	-361.72080	652.45276	-471.16138	-351.99531	635.66555	-677.76096	-339.73749	666.60190	-499.83236	-334.15165	651.63833	-635.52646	
185	1.84000000	-83.96058	423.64160	-439.55791	-45.69698	353.16266	-438.71285	-248.02414	92.88776	-423.55347	-313.40460	62.88045	-465.00805	-152.93400	43.78622	-391.24268	-107.78538	56.70165	-445.28403	-54.73839	429.90112	-775.96935	-26.78740	334.20040	-776.71718	-208.62113	96.48050	-813.85002	-276.88807	56.87642	-773.63557	-118.18035	45.01050	-847.88374	-66.68787	59.50527	-795.73977	-106.87415	258.46535	-425.38336	-100.93194	396.94950	-406.41180	-172.14094	302.36956	-395.79494	-90.94736	385.69385	-811.59733	-146.40817	278.54923	-835.68172	-238.36581	607.85764	-389.50771	-150.11352	541.82641	-404.32134	-172.22242	476.54340	-408.48728	-309.09336	526.02534	-405.43806	-216.58894	457.07905	-431.86833	-246.08003	629.06389	-781.91450	-134.24731	549.41675	-777.37159	-316.85268	542.35636	-782.62846	-203.79499	459.52884	-760.64330	-247.41418	685.74168	-468.91676	-391.41508	815.74408	-554.48323	-240.30132	669.13439	-675.56038	-388.04998	806.88903	-634.38866	30.15295	998.31776	-541.18738	57.32023	927.27665	-396.38147	91.60465	925.87526	-675.19509	78.48975	864.40308	-509.71179	81.24159	864.64076	-548.58570	-37.65084	878.45853	-326.57899	-257.47333	917.62635	-354.93840	-245.62399	903.87713	-288.82650	-260.97600	808.32886	-274.54479	-313.75502	674.65119	-286.41487	-345.88906	689.03102	-271.22718	19.87666	892.08965	-765.85713	-203.85723	894.45598	-795.45794	-168.97962	884.84223	-853.36345	-207.03114	783.42362	-881.21927	-261.24677	669.61527	-884.30236	-296.78598	689.44823	-887.00930	-361.05048	657.69179	-470.78449	-351.13118	641.03162	-677.38346	-339.11663	671.88348	-499.35090	-333.39233	656.81734	-635.30469	
